<svg xmlns="http://www.w3.org/2000/svg"><symbol id="svg-cross" viewBox="0 0 50.3 50.3"><path d="M30 25.3L47.3 8.1c1.3-1.3 1.3-3.5 0-4.8C46 2 43.8 2 42.5 3.3L25.2 20.4 8 3.2c-1.3-1.3-3.5-1.3-4.8 0-1.3 1.3-1.3 3.5 0 4.8l17.2 17.2L3.2 42.5c-1.3 1.3-1.3 3.5 0 4.8 1.3 1.3 3.5 1.3 4.8 0l17.2-17.2 17.2 17.2c1.3 1.3 3.5 1.3 4.8 0 1.3-1.3 1.3-3.5 0-4.8L30 25.3z"/></symbol><symbol id="svg-plus" viewBox="0 0 80 80"><path d="M67 33.7H45.2V11.8c0-2.8-2.2-5-5-5s-5 2.2-5 5v21.9H13.3c-2.8 0-5 2.2-5 5s2.2 5 5 5h21.9v21.9c0 2.8 2.2 5 5 5s5-2.2 5-5V43.7H67c2.8 0 5-2.2 5-5s-2.2-5-5-5z"/></symbol></svg>