<?xml version="1.0" encoding="utf-8"?>
<!-- Generator: Adobe Illustrator 18.0.0, SVG Export Plug-In . SVG Version: 6.00 Build 0)  -->
<!DOCTYPE svg PUBLIC "-//W3C//DTD SVG 1.1//EN" "http://www.w3.org/Graphics/SVG/1.1/DTD/svg11.dtd">
<svg version="1.1" id="Layer_2" xmlns="http://www.w3.org/2000/svg" xmlns:xlink="http://www.w3.org/1999/xlink" x="0px" y="0px"
	 viewBox="0 0 50.3 50.3" enable-background="new 0 0 50.3 50.3" xml:space="preserve">
<path d="M30,25.3L47.3,8.1c1.3-1.3,1.3-3.5,0-4.8c-1.3-1.3-3.5-1.3-4.8,0L25.2,20.4L8,3.2c-1.3-1.3-3.5-1.3-4.8,0
	c-1.3,1.3-1.3,3.5,0,4.8l17.2,17.2L3.2,42.5c-1.3,1.3-1.3,3.5,0,4.8c1.3,1.3,3.5,1.3,4.8,0l17.2-17.2l17.2,17.2
	c1.3,1.3,3.5,1.3,4.8,0c1.3-1.3,1.3-3.5,0-4.8L30,25.3z"/>
</svg>
